<svg id="Capa_1" enable-background="new 0 0 512 512" height="512" viewBox="0 0 512 512" width="512" xmlns="http://www.w3.org/2000/svg" xmlns:xlink="http://www.w3.org/1999/xlink"><linearGradient id="SVGID_1_" gradientTransform="matrix(.987 .163 -.163 .987 -47.627 28.896)" gradientUnits="userSpaceOnUse" x1="548.116" x2="223.143" y1="245.052" y2="113.417"><stop offset=".0112" stop-color="#dcfdee"/><stop offset=".7774" stop-color="#ccddfb"/><stop offset="1" stop-color="#c7d3ff"/></linearGradient><path d="m337.822.425c-95.818 8.652-105.091 192.429-146.416 286.587-20.478 46.658-68.772 94.794-60.258 149.782 9.605 62.035 72.897 80.075 121.683 74.14 120.723-14.685 172.899-141.053 180.797-260.801 4.869-73.829 20.3-260.192-95.806-249.708z" fill="url(#SVGID_1_)"/><g fill="#2626bc"><path d="m101.651 105.742 65.099 306.985 241.886-241.886z" opacity=".11"/><path d="m396.44 149.477h-20.896c-23.12 0-41.862 18.742-41.862 41.862s18.742 41.862 41.862 41.862h20.896c23.12 0 41.862-18.742 41.862-41.862-.001-23.12-18.743-41.862-41.862-41.862z" opacity=".11"/><path d="m185.189 155.055c0-34.954-28.335-63.289-63.289-63.289h-31.591c-34.953 0-63.289 28.335-63.289 63.289s28.335 63.289 63.289 63.289h31.591c34.954 0 63.289-28.336 63.289-63.289z" opacity=".11"/><path d="m174.544 351.555h-24.629c-27.25 0-49.34 22.09-49.34 49.34s22.09 49.34 49.34 49.34h24.629c27.25 0 49.34-22.09 49.34-49.34-.001-27.25-22.091-49.34-49.34-49.34z" opacity=".11"/></g><path d="m411.44 218.2c23.12 0 41.862-18.742 41.862-41.862s-18.742-41.862-41.862-41.862h-20.896v83.724z" fill="#4369fd"/><circle cx="390.544" cy="176.339" fill="#ff7eb8" r="41.862"/><path d="m136.9 203.344c34.954 0 63.289-28.335 63.289-63.289s-28.335-63.289-63.289-63.289h-31.591v126.578z" fill="#4369fd"/><circle cx="105.309" cy="140.055" fill="#02ffb3" r="63.289"/><path d="m189.544 435.234c27.25 0 49.34-22.09 49.34-49.34s-22.09-49.34-49.34-49.34h-24.628v98.679h24.628z" fill="#4369fd"/><circle cx="164.915" cy="385.895" fill="#8399fe" r="49.34"/><path d="m256.781 361.64c-1.279 0-2.559-.488-3.536-1.464-1.953-1.953-1.953-5.119 0-7.071l114.441-114.44c1.951-1.952 5.119-1.952 7.07 0 1.953 1.953 1.953 5.119 0 7.071l-114.44 114.44c-.976.976-2.256 1.464-3.535 1.464z" fill="#ff7eb8"/><path d="m341.785 137.131c-.344 0-.692-.036-1.042-.11l-124.63-26.43c-2.702-.573-4.427-3.227-3.854-5.928s3.23-4.428 5.928-3.854l124.63 26.43c2.701.573 4.427 3.227 3.854 5.928-.498 2.352-2.574 3.964-4.886 3.964z" fill="#02ffb3"/><path d="m123.676 330.291c-2.312 0-4.387-1.612-4.886-3.963l-20.78-97.95c-.573-2.701 1.152-5.355 3.854-5.929 2.702-.572 5.356 1.152 5.929 3.854l20.78 97.95c.573 2.701-1.152 5.355-3.854 5.929-.351.073-.7.109-1.043.109z" fill="#9fb0fe"/><path d="m402.931 180.931c3.405-3.265 5.538-7.847 5.538-12.925 0-9.884-8.041-17.926-17.925-17.926-9.885 0-17.926 8.042-17.926 17.926 0 5.079 2.133 9.661 5.538 12.925-3.405 3.265-5.538 7.847-5.538 12.925 0 2.761 2.238 5 5 5s5-2.239 5-5c0-4.37 3.556-7.925 7.926-7.925s7.925 3.555 7.925 7.925c0 2.761 2.238 5 5 5s5-2.239 5-5c0-5.078-2.133-9.66-5.538-12.925zm-20.313-12.925c0-4.37 3.556-7.926 7.926-7.926s7.925 3.556 7.925 7.926-3.555 7.925-7.925 7.925-7.926-3.555-7.926-7.925z" fill="#ffdbed"/><path d="m120.133 146.998c5.899-4.486 9.717-11.575 9.717-19.542 0-13.532-11.009-24.542-24.542-24.542-13.532 0-24.541 11.009-24.541 24.542 0 7.966 3.818 15.055 9.717 19.542-5.899 4.486-9.717 11.575-9.717 19.541 0 2.761 2.239 5 5 5s5-2.239 5-5c0-8.018 6.523-14.541 14.541-14.541s14.542 6.523 14.542 14.541c0 2.761 2.239 5 5 5s5-2.239 5-5c0-7.966-3.817-15.055-9.717-19.541zm-29.365-19.541c0-8.018 6.523-14.542 14.541-14.542s14.542 6.523 14.542 14.542-6.523 14.542-14.542 14.542-14.541-6.524-14.541-14.542z" fill="#fff"/><path d="m411.44 129.477h-20.896c-.002 0-.004.001-.006.001-17.446.002-32.684 9.594-40.749 23.774l-147.019-31.178c-7.914-28.957-34.438-50.309-65.869-50.309h-31.592c-37.655 0-68.289 30.634-68.289 68.289s30.634 68.289 68.289 68.289h12.989l26.915 126.924c-20.248 7.908-34.638 27.612-34.638 50.627 0 29.963 24.377 54.34 54.34 54.34h24.628c29.963 0 54.339-24.377 54.339-54.34s-24.376-54.339-54.339-54.339h-24.628c-3.44 0-6.802.336-10.066.95l-26.329-124.161h8.381c37.654 0 68.289-30.634 68.289-68.289 0-2.477-.14-4.921-.399-7.33l140.946 29.889c-1.333 4.343-2.055 8.95-2.055 13.724 0 14.323 6.466 27.158 16.625 35.761l-118.971 118.971c-1.953 1.953-1.953 5.119 0 7.071.977.976 2.256 1.464 3.536 1.464s2.559-.488 3.536-1.464l120.338-120.339c6.517 3.44 13.932 5.398 21.799 5.398h20.896c7.73 0 15.398-1.927 22.174-5.573 2.432-1.308 3.343-4.34 2.034-6.772s-4.34-3.343-6.772-2.034c-2.5 1.345-5.16 2.381-7.904 3.113 10.048-8.602 16.434-21.363 16.434-35.596 0-14.24-6.393-27.008-16.45-35.61 15.727 4.207 27.346 18.574 27.346 35.61 0 4.89-.946 9.645-2.812 14.134-1.06 2.55.148 5.476 2.698 6.536.627.261 1.277.384 1.917.384 1.96 0 3.82-1.16 4.619-3.083 2.374-5.711 3.577-11.758 3.577-17.972-.001-25.838-21.022-46.86-46.862-46.86zm-290.865 256.418c0-24.449 19.891-44.339 44.34-44.339s44.339 19.891 44.339 44.339c0 24.449-19.891 44.34-44.339 44.34-24.449-.001-44.34-19.891-44.34-44.34zm113.308 0c0 21.829-15.86 40.011-36.659 43.66 13.356-9.91 22.03-25.79 22.03-43.66s-8.674-33.75-22.03-43.66c20.799 3.649 36.659 21.831 36.659 43.66zm-186.863-245.84c0-32.141 26.148-58.289 58.289-58.289s58.289 26.148 58.289 58.289-26.148 58.289-58.289 58.289-58.289-26.149-58.289-58.289zm94.09 58.12c19.477-12.042 32.487-33.587 32.487-58.12s-13.01-46.078-32.487-58.12c30.181 2.167 54.079 27.397 54.079 58.12s-23.898 55.953-54.079 58.12zm286.296-21.837c0 20.326-16.536 36.862-36.861 36.862-20.326 0-36.862-16.536-36.862-36.862 0-20.325 16.536-36.861 36.862-36.861 20.324 0 36.861 16.536 36.861 36.861z" fill="#2626bc"/><path d="m178.19 391.308c4.255-3.712 6.96-9.158 6.96-15.234 0-11.157-9.077-20.234-20.234-20.234s-20.234 9.077-20.234 20.234c0 6.077 2.705 11.522 6.96 15.234-4.255 3.712-6.96 9.158-6.96 15.234 0 2.761 2.239 5 5 5s5-2.239 5-5c0-5.643 4.591-10.234 10.234-10.234s10.234 4.591 10.234 10.234c0 2.761 2.239 5 5 5s5-2.239 5-5c0-6.077-2.706-11.522-6.96-15.234zm-23.509-15.235c0-5.643 4.591-10.234 10.234-10.234s10.234 4.591 10.234 10.234-4.591 10.234-10.234 10.234-10.234-4.591-10.234-10.234z" fill="#d2deff"/><path d="m168.598 257.727c-3.9 0-7.568-1.519-10.326-4.278-5.693-5.693-5.693-14.957 0-20.651 2.758-2.758 6.425-4.277 10.326-4.277s7.568 1.519 10.326 4.278c2.758 2.757 4.277 6.425 4.277 10.325s-1.519 7.567-4.277 10.325c-2.759 2.759-6.426 4.278-10.326 4.278zm0-19.206c-1.229 0-2.385.479-3.254 1.348-1.794 1.795-1.794 4.715 0 6.509.87.87 2.025 1.349 3.254 1.349s2.385-.479 3.254-1.348c.869-.87 1.348-2.025 1.348-3.254s-.479-2.385-1.348-3.254c-.869-.871-2.025-1.35-3.254-1.35z" fill="#8399fe"/><path d="m470.384 131.488c-3.739 0-7.479-1.423-10.326-4.27-5.694-5.694-5.694-14.958 0-20.652 5.694-5.693 14.959-5.692 20.651 0 5.694 5.694 5.694 14.958 0 20.652-2.845 2.846-6.586 4.27-10.325 4.27zm0-19.196c-1.179 0-2.358.449-3.256 1.346-1.794 1.794-1.794 4.714 0 6.509 1.796 1.795 4.717 1.795 6.511 0 1.794-1.794 1.794-4.715 0-6.509-.898-.898-2.076-1.346-3.255-1.346z" fill="#8399fe"/><path d="m283.618 386.308h-3.25v-3.25c0-2.761-2.238-5-5-5s-5 2.239-5 5v3.25h-3.25c-2.762 0-5 2.239-5 5s2.238 5 5 5h3.25v3.25c0 2.761 2.238 5 5 5s5-2.239 5-5v-3.25h3.25c2.762 0 5-2.239 5-5s-2.238-5-5-5z" fill="#01eca5"/><path d="m376.164 102.892h-3.25v-3.25c0-2.761-2.238-5-5-5s-5 2.239-5 5v3.25h-3.25c-2.762 0-5 2.239-5 5s2.238 5 5 5h3.25v3.25c0 2.761 2.238 5 5 5s5-2.239 5-5v-3.25h3.25c2.762 0 5-2.239 5-5s-2.238-5-5-5z" fill="#ff7eb8"/><path d="m101.559 335.104h-3.25v-3.25c0-2.761-2.239-5-5-5s-5 2.239-5 5v3.25h-3.25c-2.761 0-5 2.239-5 5s2.239 5 5 5h3.25v3.25c0 2.761 2.239 5 5 5s5-2.239 5-5v-3.25h3.25c2.761 0 5-2.239 5-5s-2.239-5-5-5z" fill="#ff7eb8"/></svg>