<svg id="Capa_1" enable-background="new 0 0 512 512" height="512" viewBox="0 0 512 512" width="512" xmlns="http://www.w3.org/2000/svg" xmlns:xlink="http://www.w3.org/1999/xlink"><linearGradient id="SVGID_1_" gradientUnits="userSpaceOnUse" x1="232.681" x2="286.681" y1="139.999" y2="397.999"><stop offset=".0112" stop-color="#dcfdee"/><stop offset=".7774" stop-color="#ccddfb"/><stop offset="1" stop-color="#c7d3ff"/></linearGradient><path d="m501.873 136.752c-22.357-56.888-91.226-91.003-149.556-68.427-66.582 25.769-44.506 131.673-104.983 153.088-32.669 11.568-80.963-31.644-113.969-38.271-60.821-12.21-115.881 30.705-129.439 90.134-13.832 60.63 8.353 141.61 74.967 158.066 79.35 19.602 120.683-51.729 187.249-72.211 68.31-21.019 144.263 28.622 200.814-31.776 41.78-44.621 57.055-134.272 34.917-190.603z" fill="url(#SVGID_1_)"/><path d="m334.82 46.792h-205.64c-11.6 0-21 9.4-21 21v68.787c-16.409 4.699-28.423 19.802-28.423 37.72s12.014 33.021 28.423 37.72v258.193c0 11.6 9.4 21 21 21h205.64c11.6 0 21-9.4 21-21v-402.42c0-11.601-9.4-21-21-21z" fill="#2626bc" opacity=".11"/><path d="m379.82 46.792v402.42c0 11.6-9.4 21-21 21h-205.64c-11.6 0-21-9.4-21-21v-402.42c0-11.6 9.4-21 21-21h205.64c11.6 0 21 9.4 21 21z" fill="#ffa8cf"/><path d="m169.32 177.062c0 20.96-16.44 38.09-37.14 39.18v-78.36c20.7 1.089 37.14 18.22 37.14 39.18z" fill="#ff7eb8"/><path d="m379.818 80.002v-33.214c0-11.598-9.402-21-21-21h-205.636c-11.598 0-21 9.402-21 21v33.213h247.636z" fill="#6583fe"/><path d="m379.82 46.788v33.21h-21.88v-33.21c0-11.6-9.4-21-21-21h21.88c11.6 0 21 9.4 21 21z" fill="#8399fe"/><circle cx="166.833" cy="53.985" fill="#fff" r="5.59"/><circle cx="186.743" cy="53.985" fill="#fff" r="5.59"/><circle cx="206.654" cy="53.985" fill="#fff" r="5.59"/><circle cx="130.075" cy="158.845" fill="#02ffb3" r="39.243"/><path d="m298.509 311.284v60.869c0 2.761-2.239 5-5 5h-24.531c-2.761 0-5-2.239-5-5v-60.869c0-2.761 2.239-5 5-5h24.531c2.762 0 5 2.238 5 5z" fill="#97ffd2"/><path d="m197.534 311.284v60.869c0 2.761-2.239 5-5 5h-24.531c-2.761 0-5-2.239-5-5v-60.869c0-2.761 2.239-5 5-5h24.531c2.761 0 5 2.238 5 5z" fill="#ffdbed"/><path d="m248.021 291.51v80.643c0 2.761-2.239 5-5 5h-24.531c-2.761 0-5-2.239-5-5v-80.643c0-2.761 2.239-5 5-5h24.531c2.762 0 5 2.239 5 5z" fill="#ffdbed"/><path d="m348.997 255.85v116.303c0 2.761-2.239 5-5 5h-24.531c-2.761 0-5-2.239-5-5v-116.303c0-2.761 2.239-5 5-5h24.531c2.761 0 5 2.239 5 5z" fill="#02ffb3"/><path d="m265.063 399.889c0 2.761 2.239 5 5 5h73.875c2.761 0 5-2.239 5-5 0-2.761-2.239-5-5-5h-73.875c-2.762 0-5 2.239-5 5z" fill="#ff7eb8"/><g fill="#2626bc"><path d="m358.818 475.215h-52.436c-2.761 0-5-2.239-5-5s2.239-5 5-5h52.436c8.822 0 16-7.178 16-16v-257.547c0-2.761 2.239-5 5-5s5 2.239 5 5v257.546c0 14.337-11.663 26.001-26 26.001z"/><path d="m256 441.338c-1.328 0-2.601-.528-3.539-1.467l-5.83-5.84c-1.951-1.955-1.948-5.12.006-7.071 1.954-1.95 5.12-1.948 7.071.006l2.292 2.295 2.292-2.295c1.951-1.954 5.117-1.957 7.071-.006s1.957 5.117.006 7.071l-5.83 5.84c-.938.939-2.211 1.467-3.539 1.467z"/><path d="m358.818 20.789h-205.636c-14.336 0-26 11.664-26 26v67.919c-23.051 1.497-41.35 20.715-41.35 44.138s18.299 42.642 41.35 44.138v246.231c0 14.336 11.664 26 26 26h125.102c2.761 0 5-2.239 5-5s-2.239-5-5-5h-125.102c-8.822 0-16-7.178-16-16v-246.705c21.028-3.411 37.136-21.688 37.136-43.665s-16.108-40.254-37.136-43.665v-30.179h237.637v78.567c0 2.761 2.239 5 5 5s5-2.239 5-5v-116.779c-.001-14.337-11.664-26-26.001-26zm-194.5 138.057c0 18.882-15.361 34.243-34.243 34.243s-34.243-15.361-34.243-34.243 15.361-34.243 34.243-34.243 34.243 15.361 34.243 34.243zm210.5-83.845h-237.636v-28.212c0-8.822 7.178-16 16-16h205.637c8.822 0 16 7.178 16 16v28.212z"/></g><path d="m130.075 175.108c-.001 0-.001 0 0 0-1.327 0-2.599-.527-3.537-1.466l-11.418-11.427c-1.952-1.954-1.95-5.119.003-7.071s5.119-1.95 7.071.003l7.882 7.888 39.917-39.925c1.953-1.953 5.119-1.954 7.071-.001s1.953 5.119.001 7.071l-43.454 43.463c-.938.938-2.21 1.465-3.536 1.465z" fill="#fff"/><path d="m244.713 262.016h-72.29c-2.761 0-5-2.239-5-5s2.239-5 5-5h72.29c1.335 0 2.591-.52 3.535-1.465l49.224-49.224c2.834-2.833 6.601-4.393 10.606-4.393h24.716c4.006 0 7.773 1.56 10.606 4.393l25.461 25.461c.944.945 2.2 1.465 3.535 1.465h30.539c2.761 0 5 2.239 5 5s-2.239 5-5 5h-30.539c-4.007 0-7.774-1.561-10.607-4.394l-25.46-25.46c-.944-.944-2.2-1.464-3.536-1.464h-24.716c-1.335 0-2.591.52-3.536 1.465l-49.223 49.223c-2.832 2.832-6.599 4.393-10.605 4.393z" fill="#ff7eb8"/><path d="m238.794 237.069h-66.371c-2.761 0-5-2.239-5-5s2.239-5 5-5h66.371c1.335 0 2.591-.52 3.536-1.465l13.28-13.281c2.833-2.833 6.6-4.393 10.607-4.393h38.227c1.335 0 2.591-.52 3.536-1.465l15.689-15.689c2.833-2.833 6.6-4.393 10.606-4.393h67.235c1.335 0 2.591-.52 3.535-1.465l29.609-29.608c1.954-1.952 5.119-1.951 7.071 0 1.953 1.953 1.953 5.119 0 7.071l-29.609 29.608c-2.833 2.833-6.6 4.394-10.606 4.394h-67.235c-1.335 0-2.591.52-3.535 1.464l-15.689 15.689c-2.833 2.833-6.6 4.394-10.607 4.394h-38.227c-1.336 0-2.591.52-3.536 1.464l-13.281 13.281c-2.833 2.834-6.6 4.394-10.606 4.394z" fill="#02ffb3"/><path d="m341.89 155.171h-20.994c.696-1.618 1.062-3.376 1.062-5.19v-7.161h7.28c2.761 0 5-2.239 5-5s-2.239-5-5-5h-7.28v-7.209c0-3.377 2.748-6.125 6.125-6.125s6.124 2.748 6.124 6.125c0 2.761 2.239 5 5 5s5-2.239 5-5c0-8.891-7.233-16.125-16.124-16.125s-16.125 7.233-16.125 16.125v7.209h-1.409c-2.761 0-5 2.239-5 5s2.239 5 5 5h1.409v7.161c0 .836-.325 1.622-.917 2.213-2.182 2.182-2.829 5.434-1.648 8.285s3.938 4.693 7.023 4.693h25.474c2.761 0 5-2.239 5-5s-2.239-5.001-5-5.001z" fill="#ffdbed"/><path d="m252.91 132.329h-1.243v-9.335h5.974c2.761 0 5-2.239 5-5s-2.239-5-5-5h-5.974v-2.199c0-2.761-2.239-5-5-5s-5 2.239-5 5v2.199h-1.243c-8.088 0-14.667 6.58-14.667 14.667s6.58 14.667 14.667 14.667h1.243v9.335h-5.974c-2.761 0-5 2.239-5 5s2.239 5 5 5h5.974v2.199c0 2.761 2.239 5 5 5s5-2.239 5-5v-2.199h1.243c8.088 0 14.667-6.58 14.667-14.667s-6.579-14.667-14.667-14.667zm-12.487 0c-2.574 0-4.667-2.094-4.667-4.667s2.094-4.667 4.667-4.667h1.243v9.335h-1.243zm12.487 19.335h-1.243v-9.335h1.243c2.574 0 4.667 2.094 4.667 4.667s-2.094 4.668-4.667 4.668z" fill="#fff"/><path d="m283.403 148.649c-1.281 0-2.562-.489-3.539-1.468-1.951-1.955-1.948-5.12.006-7.071l2.295-2.291-2.295-2.292c-1.955-1.951-1.958-5.117-.006-7.071 1.951-1.955 5.117-1.958 7.071-.006l5.84 5.83c.94.938 1.468 2.211 1.468 3.539s-.528 2.601-1.468 3.539l-5.84 5.83c-.976.975-2.254 1.461-3.532 1.461z" fill="#ff7eb8"/><path d="m422.5 96.358h-3.25v-3.25c0-2.761-2.239-5-5-5s-5 2.239-5 5v3.25h-3.25c-2.761 0-5 2.239-5 5s2.239 5 5 5h3.25v3.25c0 2.761 2.239 5 5 5s5-2.239 5-5v-3.25h3.25c2.761 0 5-2.239 5-5s-2.239-5-5-5z" fill="#ff7eb8"/><path d="m451.842 372.153h-3.25v-3.25c0-2.761-2.239-5-5-5s-5 2.239-5 5v3.25h-3.25c-2.761 0-5 2.239-5 5s2.239 5 5 5h3.25v3.25c0 2.761 2.239 5 5 5s5-2.239 5-5v-3.25h3.25c2.761 0 5-2.239 5-5s-2.238-5-5-5z" fill="#01eca5"/><path d="m428.602 330.468c-1.458 0-2.922-.221-4.354-.666-3.725-1.158-6.775-3.697-8.59-7.15-1.814-3.453-2.176-7.406-1.018-11.13s3.697-6.775 7.15-8.589 7.407-2.176 11.13-1.018c3.725 1.158 6.776 3.697 8.59 7.15 1.815 3.453 2.176 7.406 1.018 11.13s-3.698 6.775-7.15 8.589c-2.126 1.117-4.441 1.684-6.776 1.684zm-.015-19.213c-1.963 0-3.785 1.266-4.398 3.236-.365 1.174-.251 2.42.321 3.508s1.534 1.889 2.708 2.254c2.42.752 5.008-.604 5.762-3.028.365-1.174.251-2.42-.321-3.508s-1.533-1.889-2.707-2.254c-.454-.141-.913-.208-1.365-.208z" fill="#8399fe"/><path d="m62.342 265.915c-1.458 0-2.922-.221-4.354-.666-3.724-1.158-6.775-3.697-8.589-7.15-1.815-3.453-2.176-7.405-1.018-11.13s3.697-6.776 7.15-8.59c3.452-1.814 7.405-2.176 11.13-1.018 7.688 2.391 11.999 10.592 9.608 18.28-1.158 3.724-3.697 6.775-7.15 8.59-2.127 1.118-4.442 1.684-6.777 1.684zm-.024-19.215c-.736 0-1.466.179-2.136.531-1.088.572-1.889 1.534-2.254 2.708-.753 2.424.605 5.009 3.028 5.762 1.175.364 2.42.251 3.508-.321s1.889-1.533 2.254-2.707c.753-2.424-.605-5.009-3.029-5.763-.45-.14-.911-.21-1.371-.21zm9.176 7.457h.01z" fill="#8399fe"/><path d="m98.086 293.754c-1.433 0-2.889-.213-4.327-.66-7.689-2.391-11.999-10.591-9.608-18.28 1.158-3.725 3.697-6.775 7.15-8.59s7.406-2.177 11.13-1.018c3.725 1.158 6.775 3.697 8.59 7.15s2.176 7.405 1.018 11.13c-1.943 6.251-7.727 10.268-13.953 10.268zm.004-19.209c-.736 0-1.466.179-2.136.531-1.088.572-1.889 1.534-2.254 2.708-.753 2.423.605 5.009 3.028 5.762 2.42.75 5.007-.605 5.762-3.029.365-1.174.251-2.419-.321-3.508-.572-1.088-1.534-1.889-2.708-2.254-.45-.14-.912-.21-1.371-.21zm9.175 7.456h.01z" fill="#ff7eb8"/></svg>