<svg id="Capa_1" enable-background="new 0 0 512 512" height="512" viewBox="0 0 512 512" width="512" xmlns="http://www.w3.org/2000/svg" xmlns:xlink="http://www.w3.org/1999/xlink"><linearGradient id="SVGID_1_" gradientUnits="userSpaceOnUse" x1="253.454" x2="259.451" y1="510.485" y2="2.682"><stop offset=".0112" stop-color="#dcfdee"/><stop offset=".3814" stop-color="#e8f1ee"/><stop offset="1" stop-color="#ffdbed"/></linearGradient><path d="m367.602 47.645c-68.759-27.81-164.519-18.632-217.922 29.019-37.707 33.645-8.934 43.684 15.8 106.316 17.901 45.33-164.545 37.042-165.473 118.573-1.073 94.257 131.322 77.894 180.254 89.242 74.814 17.35 139.543 79.805 219.771 72.582 69.844-6.288 97.063-60.73 107.479-123.379 19.405-116.717-23.529-245.283-139.909-292.353z" fill="url(#SVGID_1_)"/><path d="m441.662 431.212-74.031-74.031c-3.904-3.904-10.233-3.904-14.137 0l-4.147 4.147-34.163-34.163c49.779-62.485 45.765-153.739-12.066-211.569-62.157-62.157-162.934-62.157-225.091 0-55.608 55.609-61.457 142.125-17.565 204.248-3.673 6.549-5.777 14.097-5.777 22.14 0 25.038 20.297 45.335 45.335 45.335 11.724 0 22.408-4.451 30.456-11.754 52.189 21.249 113.367 13.639 159.121-22.812l34.163 34.163-4.147 4.147c-3.904 3.904-3.904 10.233 0 14.137l74.031 74.031c3.904 3.904 10.233 3.904 14.137 0l33.881-33.881c3.904-3.905 3.904-10.235 0-14.138z" fill="#2626bc" opacity=".11"/><path d="m317.798 296.849h36.186v75.221h-36.186z" fill="#d2deff" transform="matrix(.707 -.707 .707 .707 -138.118 335.472)"/><path d="m322.091 295.071 19.629 19.629c-3.753 4.658-7.796 9.154-12.115 13.472s-8.814 8.362-13.472 12.115l-19.629-19.629z" fill="#b7c5ff"/><path d="m459.662 424.348-33.881 33.881c-3.904 3.904-10.233 3.904-14.137 0l-74.031-74.031c-3.904-3.904-3.904-10.233 0-14.137l33.881-33.881c3.904-3.904 10.233-3.904 14.137 0l74.031 74.031c3.904 3.905 3.904 10.234 0 14.137z" fill="#ffa8cf"/><circle cx="208.574" cy="207.141" fill="#6583fe" r="159.163"/><path d="m347.95 130.191c-6.387 24.491-27.799 43.223-53.729 45.422-14.454 1.229-27.959-2.599-38.965-9.896l-19.462 8.567c-4.008 1.769-8.107-2.329-6.338-6.338l8.567-19.463c-7.297-11.006-11.126-24.51-9.896-38.965 1.949-23.031 16.953-42.494 37.435-51.03 20.252 7.747 39.235 19.782 55.559 36.106 10.825 10.826 19.771 22.832 26.829 35.597z" fill="#4369fd"/><circle cx="208.574" cy="207.141" fill="#97ffd2" r="120.347"/><path d="m321.77 166.197c-8.097 5.208-17.483 8.567-27.549 9.416-14.454 1.229-27.959-2.599-38.965-9.896l-19.462 8.567c-4.008 1.769-8.107-2.329-6.338-6.338l8.567-19.463c-7.297-11.006-11.126-24.51-9.896-38.965.61-7.127 2.459-13.915 5.348-20.132 22.062 4.638 43.063 15.524 60.197 32.657 12.914 12.916 22.28 28.04 28.098 44.154z" fill="#02ffb3"/><path d="m349.78 99.863c2.361-36.86-28.035-67.256-64.895-64.895-29.847 1.912-54.232 25.755-56.762 55.556-1.227 14.455 2.603 27.962 9.898 38.971l-8.567 19.456c-1.769 4.018 2.325 8.112 6.343 6.343l19.456-8.567c11.009 7.296 24.516 11.125 38.971 9.898 29.801-2.531 53.644-26.916 55.556-56.762z" fill="#ffa8cf"/><circle cx="265.581" cy="95.129" fill="#fff" r="6.854"/><circle cx="289.995" cy="95.129" fill="#fff" r="6.854"/><circle cx="314.41" cy="95.129" fill="#fff" r="6.854"/><circle cx="118.021" cy="320.984" fill="#02ffb3" r="45.335"/><path d="m144.708 258.296h118.012c3.294 0 5.964-2.67 5.964-5.964v-31.476c0-3.294-2.67-5.964-5.964-5.964h-118.012c-3.294 0-5.964 2.67-5.964 5.964v31.476c-.001 3.294 2.67 5.964 5.964 5.964z" fill="#ffdbed"/><path d="m188.942 241.419h-51.789c-2.761 0-4.998-2.238-4.998-4.998s2.237-4.998 4.998-4.998h51.789c2.761 0 4.998 2.238 4.998 4.998s-2.237 4.998-4.998 4.998z" fill="#ff7eb8"/><path d="m213.642 258.296h-76.49c-2.761 0-4.998-2.238-4.998-4.998s2.237-4.998 4.998-4.998h76.49c2.761 0 4.998 2.238 4.998 4.998s-2.237 4.998-4.998 4.998z" fill="#ff7eb8"/><g fill="#ffa8cf"><circle cx="203.35" cy="179.017" r="5.588"/><circle cx="220.254" cy="179.017" r="5.588"/><circle cx="203.35" cy="196.175" r="5.588"/><circle cx="220.254" cy="196.175" r="5.588"/></g><path d="m54.67 103.434c-3.899 0-7.566-1.519-10.323-4.276-2.757-2.756-4.275-6.423-4.275-10.322s1.519-7.566 4.276-10.323c5.691-5.691 14.952-5.692 20.646-.001 5.692 5.693 5.691 14.955 0 20.646-2.758 2.757-6.425 4.276-10.324 4.276zm0-19.197c-1.178 0-2.355.448-3.252 1.345-.868.869-1.347 2.024-1.347 3.253s.479 2.383 1.347 3.251c.869.869 2.023 1.348 3.252 1.348s2.384-.479 3.253-1.347c1.793-1.793 1.792-4.711-.001-6.505-.897-.896-2.074-1.345-3.252-1.345z" fill="#8399fe"/><path d="m385.109 128.282c-3.899 0-7.566-1.519-10.323-4.276-5.691-5.692-5.691-14.953-.001-20.646 2.758-2.758 6.425-4.276 10.324-4.276s7.566 1.519 10.323 4.276c5.691 5.691 5.691 14.954-.001 20.646h.001c-.001 0-.001 0-.001 0-2.756 2.758-6.422 4.276-10.322 4.276zm0-19.198c-1.229 0-2.384.479-3.253 1.347-1.792 1.793-1.792 4.712.001 6.505.868.868 2.023 1.347 3.252 1.347s2.383-.479 3.251-1.347h.001c1.793-1.794 1.793-4.711 0-6.505-.869-.869-2.023-1.347-3.252-1.347z" fill="#01eca5"/><path d="m91.041 48.667h-3.247v-3.247c0-2.762-2.238-5-5-5s-5 2.238-5 5v3.247h-3.247c-2.762 0-5 2.238-5 5s2.238 5 5 5h3.247v3.246c0 2.762 2.238 5 5 5s5-2.238 5-5v-3.246h3.247c2.762 0 5-2.238 5-5s-2.238-5-5-5z" fill="#ff7eb8"/><path d="m400.776 293.588h-3.247v-3.247c0-2.762-2.238-5-5-5s-5 2.238-5 5v3.247h-3.247c-2.762 0-5 2.238-5 5s2.238 5 5 5h3.247v3.246c0 2.762 2.238 5 5 5s5-2.238 5-5v-3.246h3.247c2.762 0 5-2.238 5-5s-2.238-5-5-5z" fill="#ff7eb8"/><path d="m155.612 403.451h-3.247v-3.247c0-2.762-2.238-5-5-5s-5 2.238-5 5v3.247h-3.247c-2.762 0-5 2.238-5 5s2.238 5 5 5h3.247v3.247c0 2.762 2.238 5 5 5s5-2.238 5-5v-3.247h3.247c2.762 0 5-2.238 5-5s-2.238-5-5-5z" fill="#01eca5"/><path d="m463.197 406.677-8.688-8.688c-1.951-1.953-5.119-1.953-7.07 0-1.953 1.952-1.953 5.118 0 7.07l8.688 8.688c1.947 1.948 1.947 5.118 0 7.066l-33.883 33.881c-.943.943-2.197 1.463-3.532 1.463-1.334 0-2.588-.52-3.532-1.463l-74.031-74.03c-1.947-1.948-1.947-5.118 0-7.065l4.15-4.149c.938-.938 1.465-2.21 1.465-3.536s-.526-2.598-1.465-3.535l-30.272-30.272c3.305-2.818 6.52-5.776 9.628-8.883 3.109-3.109 6.07-6.319 8.894-9.618l26.726 26.727-2.192 2.192c-1.953 1.952-1.953 5.118 0 7.07 1.951 1.953 5.119 1.953 7.07 0l9.878-9.877c.943-.943 2.197-1.463 3.532-1.463 1.334 0 2.588.52 3.532 1.463l45.474 45.473c.976.977 2.256 1.465 3.535 1.465s2.56-.488 3.535-1.465c1.953-1.952 1.953-5.118 0-7.07l-45.473-45.473c-2.832-2.833-6.599-4.393-10.604-4.393-4.006 0-7.772 1.56-10.604 4.393l-.615.615-27.492-27.493c17.536-23.203 28.434-50.404 31.808-79.807 4.124-35.939-3.831-72.676-22.399-103.482 3.078-6.913 5.004-14.428 5.508-22.298 1.217-19.002-5.778-37.594-19.193-51.009-13.414-13.415-32.015-20.407-51.011-19.195-15.242.977-29.171 7.258-39.92 17.003-55.288-12.405-112.105 4.032-152.153 44.08-27.416 27.415-44.288 63.76-47.51 102.34-3.127 37.439 6.693 74.929 27.656 105.817-3.174 6.591-4.954 13.974-4.954 21.766 0 27.755 22.58 50.336 50.335 50.336 11.859 0 22.765-4.132 31.377-11.019 19.225 7.419 39.257 11.035 59.122 11.035 35.25 0 69.958-11.368 98.652-32.943l27.521 27.521-.615.614c-5.846 5.848-5.846 15.361.001 21.207l74.03 74.03c2.832 2.833 6.599 4.393 10.604 4.393 4.006 0 7.772-1.56 10.604-4.393l33.883-33.881c5.847-5.849 5.847-15.363 0-21.208zm-177.992-366.719c16.141-1.045 31.918 4.902 43.301 16.286 11.383 11.383 17.318 27.164 16.284 43.299-1.754 27.383-23.674 49.78-50.988 52.1-12.805 1.09-25.18-2.055-35.787-9.084-.832-.551-1.794-.832-2.762-.832-.684 0-1.37.14-2.015.424l-19.012 8.37 8.371-19.011c.686-1.558.532-3.357-.408-4.776-7.029-10.609-10.171-22.984-9.083-35.786 2.319-27.315 24.717-49.236 52.099-50.99zm-117.201 275.173c-2.91-25.006-24.209-44.483-49.984-44.483-1.869 0-3.712.111-5.529.31-30.366-45.593-24.388-106.471 14.52-145.379 25.45-25.45 60.318-37.361 95.96-32.877-.622 13.217 2.602 25.981 9.401 37.216l-7.493 17.018c-1.644 3.732-.842 8.009 2.042 10.893 2.884 2.883 7.16 3.688 10.892 2.041l17.017-7.493c10.323 6.248 21.938 9.479 34.014 9.479 1.924 0 3.861-.082 5.805-.247 6.299-.535 12.349-1.987 18.031-4.199 9.731 20.417 13.301 43.785 10.053 66.296-3.574 24.772-14.846 47.249-32.596 65-32.023 32.019-79.811 42.3-122.133 26.425zm-68.441-217c36.221-36.22 87.058-51.866 137.138-42.566-6.103 7.87-10.464 17.139-12.497 27.215-38.722-4.859-76.609 8.074-104.264 35.729-41.363 41.362-48.498 105.588-17.89 154.752-9.4 3.154-17.566 9.008-23.579 16.642-38.744-60.684-30.312-140.367 21.092-191.772zm-21.877 222.852c0-22.241 18.094-40.335 40.335-40.335s40.335 18.094 40.335 40.335-18.094 40.336-40.335 40.336-40.335-18.094-40.335-40.336zm79.522 31.542c6.016-7.459 9.951-16.66 10.912-26.719 13.207 4.499 26.843 6.695 40.383 6.694 32.668-.001 64.75-12.77 88.705-36.726 19.29-19.289 31.538-43.717 35.423-70.643 3.529-24.461-.356-49.859-10.938-72.053 8.752-5.055 16.258-12.061 21.908-20.406 15.351 27.848 21.778 60.329 18.127 92.149-4.002 34.872-19.267 66.454-44.143 91.331-29.487 29.486-68.9 45.185-109.063 45.182-17.209-.001-34.558-2.895-51.314-8.809z" fill="#2626bc"/><path d="m118.021 338.994c-1.327 0-2.6-.527-3.537-1.466l-13.19-13.2c-1.951-1.953-1.95-5.119.003-7.071s5.118-1.952 7.071.003l9.654 9.661 46.662-46.672c1.953-1.953 5.118-1.952 7.071-.001 1.953 1.952 1.953 5.118.001 7.071l-50.199 50.21c-.938.938-2.21 1.465-3.536 1.465z" fill="#fff"/><path d="m282.371 228.85c4.654-3.912 7.622-9.768 7.622-16.309 0-11.75-9.56-21.309-21.31-21.309s-21.309 9.559-21.309 21.309c0 6.541 2.968 12.397 7.621 16.309-4.653 3.912-7.621 9.768-7.621 16.309 0 2.762 2.238 5 5 5s5-2.238 5-5c0-6.235 5.073-11.309 11.309-11.309s11.31 5.073 11.31 11.309c0 2.762 2.238 5 5 5s5-2.238 5-5c0-6.541-2.968-12.397-7.622-16.309zm-24.996-16.309c0-6.235 5.073-11.309 11.309-11.309s11.31 5.073 11.31 11.309-5.073 11.31-11.31 11.31c-6.236 0-11.309-5.074-11.309-11.31z" fill="#ff7eb8"/><path d="m149.563 203.733h-5.014c-6.284 0-11.397-5.113-11.397-11.397v-15.478c0-6.284 5.113-11.397 11.397-11.397h5.014c6.285 0 11.398 5.113 11.398 11.397v15.478c.001 6.284-5.112 11.397-11.398 11.397zm-5.013-28.272c-.771 0-1.397.627-1.397 1.397v15.478c0 .771.627 1.397 1.397 1.397h5.014c.771 0 1.398-.627 1.398-1.397v-15.478c0-.771-.627-1.397-1.398-1.397z" fill="#ff7eb8"/><path d="m176.665 203.733c-2.762 0-5-2.238-5-5v-23.272h-.12c-2.762 0-5-2.238-5-5s2.238-5 5-5h5.12c2.762 0 5 2.238 5 5v28.272c0 2.762-2.238 5-5 5z" fill="#ff7eb8"/></svg>