<svg id="Capa_1" enable-background="new 0 0 512 512" height="512" viewBox="0 0 512 512" width="512" xmlns="http://www.w3.org/2000/svg" xmlns:xlink="http://www.w3.org/1999/xlink"><linearGradient id="SVGID_1_" gradientUnits="userSpaceOnUse" x1="537.242" x2="75.242" y1="396.227" y2="96.227"><stop offset=".0112" stop-color="#dcfdee"/><stop offset=".7774" stop-color="#ccddfb"/><stop offset="1" stop-color="#c7d3ff"/></linearGradient><path d="m38.145 134.71c19.974-57.707 57.562-157.818 137.712-129.893 31.204 10.872 41.003 52.164 72.37 57.311 29.626 4.861 54.704-24.255 82.89-29.776 35.014-6.859 72.067 2.317 85.37 36.48 15.916 40.874-30.997 86.737-19.655 124.062 18.708 61.564 87.863-40.471 100.229 58.88 17.304 139.025-136.801 386.519-240.619 182.998-52.643-103.199-107.815-30.825-189.876-82.161-77.922-48.747-53.805-144.567-28.421-217.901z" fill="url(#SVGID_1_)"/><path d="m460.72 154.85c-.96-.92-2.26-1.46-3.68-1.46h-182.96c-1.42 0-2.72.54-3.68 1.46-1.06.98-1.72 2.38-1.72 3.93v35.233c-6.204-2.22-12.969-3.259-20.034-2.806-4.076.261-8.023 1.034-11.786 2.238v-91.455c0-1.42-.61-2.71-1.58-3.61-.89-.84-2.07-1.34-3.38-1.34h-167.73c-1.3 0-2.49.5-3.37 1.34-.98.9-1.58 2.19-1.58 3.61v109.03c0 1.42.6 2.72 1.58 3.62.88.83 2.07 1.33 3.37 1.33h144.697c-3.578 6.148-5.88 13.116-6.51 20.543-1.001 11.788 2.122 22.803 8.072 31.781l-.472 1.071h-126.868c-1.87 0-3.58.71-4.84 1.92-1.4 1.29-2.27 3.14-2.27 5.18v156.51c0 2.04.87 3.9 2.27 5.19 1.26 1.2 2.97 1.92 4.84 1.92h240.78c1.87 0 3.57-.72 4.84-1.92 1.4-1.29 2.27-3.15 2.27-5.19v-149.865h126.061c1.42 0 2.72-.54 3.68-1.45 1.06-.98 1.73-2.4 1.73-3.95v-118.93c0-1.55-.67-2.95-1.73-3.93z" fill="#2626bc" opacity=".11"/><path d="m480.45 140.78v118.93c0 1.55-.67 2.97-1.73 3.95-.96.91-2.26 1.45-3.68 1.45h-182.96c-1.42 0-2.72-.54-3.68-1.45-1.06-.98-1.72-2.4-1.72-3.95v-118.93c0-1.55.66-2.95 1.72-3.93.96-.92 2.26-1.46 3.68-1.46h182.96c1.42 0 2.72.54 3.68 1.46 1.06.98 1.73 2.38 1.73 3.93z" fill="#9fb0fe"/><path d="m480.45 140.78v10.25l-85.72 71.72c-3.13 2.62-7.09 4.06-11.17 4.06-4.07 0-8.04-1.44-11.16-4.06l-85.72-71.71v-10.26c0-1.55.66-2.95 1.72-3.93.96-.92 2.26-1.46 3.68-1.46h182.96c1.42 0 2.72.54 3.68 1.46 1.06.98 1.73 2.38 1.73 3.93z" fill="#8399fe"/><path d="m478.717 136.839-91.691 76.709c-2.006 1.678-4.925 1.678-6.931 0l-91.691-76.709c.961-.902 2.252-1.447 3.672-1.447h182.968c1.421-.001 2.712.545 3.673 1.447z" fill="#d2deff"/><path d="m254.86 83.99v109.03c0 1.42-.61 2.72-1.58 3.62-.89.83-2.07 1.33-3.38 1.33h-167.73c-1.3 0-2.49-.5-3.37-1.33-.98-.9-1.58-2.2-1.58-3.62v-109.03c0-1.42.6-2.71 1.58-3.61.88-.84 2.07-1.34 3.37-1.34h167.73c1.31 0 2.49.5 3.38 1.34.97.9 1.58 2.19 1.58 3.61z" fill="#97ffd2"/><path d="m254.86 83.99v10.69l-77.95 65.22c-3.04 2.55-6.9 3.95-10.87 3.95s-7.83-1.4-10.88-3.95l-77.94-65.21v-10.7c0-1.42.6-2.71 1.58-3.61.88-.84 2.07-1.34 3.37-1.34h167.73c1.31 0 2.49.5 3.38 1.34.97.9 1.58 2.19 1.58 3.61z" fill="#02ffb3"/><path d="m253.273 80.373-84.06 70.325c-1.839 1.538-4.515 1.538-6.354 0l-84.06-70.325c.881-.827 2.065-1.327 3.367-1.327h167.74c1.302 0 2.486.5 3.367 1.327z" fill="#dcfdee"/><path d="m348.979 258.465v156.51c0 2.04-.87 3.9-2.27 5.19-1.27 1.2-2.97 1.92-4.84 1.92h-240.78c-1.87 0-3.58-.72-4.84-1.92-1.4-1.29-2.27-3.15-2.27-5.19v-156.51c0-2.04.87-3.89 2.27-5.18 1.26-1.21 2.97-1.92 4.84-1.92h240.78c1.87 0 3.57.71 4.84 1.92 1.4 1.29 2.27 3.14 2.27 5.18z" fill="#ffa8cf"/><path d="m348.979 258.465v8.55l-115.24 96.41c-3.43 2.87-7.79 4.45-12.26 4.45s-8.83-1.58-12.26-4.45l-115.24-96.41v-8.55c0-2.04.87-3.89 2.27-5.18 1.26-1.21 2.97-1.92 4.84-1.92h240.78c1.87 0 3.57.71 4.84 1.92 1.4 1.29 2.27 3.14 2.27 5.18z" fill="#ff7eb8"/><path d="m346.71 253.27-120.67 100.95c-2.64 2.21-6.48 2.21-9.12 0l-120.67-100.95c1.27-1.18 2.97-1.9 4.84-1.9h240.78c1.87 0 3.57.72 4.84 1.9z" fill="#ffdbed"/><path d="m317.91 251.37c-5.43 19.64-22.75 34.6-43.65 36.38-11.79 1-22.8-2.13-31.78-8.08l-15.87 6.99c-3.27 1.44-6.61-1.9-5.17-5.17l6.99-15.87c-2.86-4.33-5.07-9.12-6.48-14.25z" fill="#ffc4df"/><path d="m319.569 226.129c1.925-30.06-22.862-54.848-52.922-52.922-24.34 1.559-44.226 21.004-46.29 45.306-1.001 11.788 2.122 22.803 8.072 31.781l-6.986 15.866c-1.443 3.277 1.896 6.615 5.173 5.173l15.866-6.986c8.978 5.95 19.993 9.073 31.781 8.072 24.302-2.064 43.747-21.95 45.306-46.29z" fill="#02ffb3"/><g fill="#fff"><circle cx="250.904" cy="222.268" r="5.59"/><circle cx="270.814" cy="222.268" r="5.59"/><circle cx="290.724" cy="222.268" r="5.59"/><path d="m115.578 161.464h-12.81c-2.762 0-5-2.239-5-5s2.238-5 5-5h12.81c2.762 0 5 2.239 5 5s-2.238 5-5 5z"/><path d="m131.288 178.347h-28.52c-2.762 0-5-2.239-5-5s2.238-5 5-5h28.52c2.762 0 5 2.239 5 5s-2.239 5-5 5z"/></g><path d="m137.411 379.207h-12.81c-2.762 0-5-2.239-5-5s2.238-5 5-5h12.81c2.762 0 5 2.239 5 5s-2.239 5-5 5z" fill="#ffdbed"/><path d="m153.121 396.091h-28.52c-2.762 0-5-2.239-5-5s2.238-5 5-5h28.52c2.762 0 5 2.239 5 5s-2.239 5-5 5z" fill="#ffdbed"/><path d="m397.061 318.22c-3.74 0-7.479-1.423-10.326-4.271-5.693-5.693-5.693-14.957 0-20.65 2.758-2.759 6.425-4.278 10.326-4.278s7.568 1.52 10.326 4.278c5.693 5.693 5.693 14.957 0 20.65v.001c-2.847 2.846-6.587 4.27-10.326 4.27zm6.79-7.806h.01zm-6.79-11.393c-1.229 0-2.385.479-3.254 1.349-1.795 1.795-1.795 4.715 0 6.51 1.794 1.793 4.714 1.794 6.51-.001 1.794-1.794 1.794-4.714 0-6.509-.871-.87-2.027-1.349-3.256-1.349z" fill="#01eca5"/><path d="m416.289 361.797c-3.74 0-7.479-1.423-10.326-4.27-5.694-5.694-5.694-14.958 0-20.651 5.694-5.694 14.958-5.695 20.652 0 5.693 5.693 5.693 14.957 0 20.65-2.847 2.847-6.587 4.271-10.326 4.271zm0-19.196c-1.179 0-2.357.449-3.255 1.347-1.794 1.794-1.794 4.714 0 6.509 1.795 1.793 4.715 1.793 6.509 0 1.794-1.795 1.794-4.715 0-6.51-.897-.897-2.076-1.346-3.254-1.346z" fill="#8399fe"/><path d="m63.363 254.421c-3.739 0-7.479-1.424-10.326-4.271-2.758-2.758-4.277-6.425-4.277-10.325s1.519-7.567 4.278-10.326c5.692-5.692 14.957-5.693 20.651.001 2.758 2.758 4.277 6.425 4.277 10.325s-1.519 7.567-4.278 10.326v-.001.001c-2.846 2.846-6.586 4.27-10.325 4.27zm0-19.196c-1.179 0-2.357.449-3.254 1.346-.87.87-1.349 2.025-1.349 3.255s.479 2.385 1.348 3.254c1.795 1.795 4.715 1.794 6.509.001v-.001c.869-.869 1.348-2.024 1.348-3.254s-.479-2.385-1.348-3.254c-.897-.898-2.075-1.347-3.254-1.347z" fill="#8399fe"/><path d="m322.173 72.628h-3.25v-3.25c0-2.762-2.239-5-5-5s-5 2.238-5 5v3.25h-3.25c-2.761 0-5 2.238-5 5s2.239 5 5 5h3.25v3.25c0 2.762 2.239 5 5 5s5-2.238 5-5v-3.25h3.25c2.761 0 5-2.238 5-5s-2.238-5-5-5z" fill="#ff7eb8"/><path d="m391.81 402.467h-3.25v-3.25c0-2.762-2.239-5-5-5s-5 2.238-5 5v3.25h-3.25c-2.761 0-5 2.238-5 5s2.239 5 5 5h3.25v3.25c0 2.762 2.239 5 5 5s5-2.238 5-5v-3.25h3.25c2.761 0 5-2.238 5-5s-2.239-5-5-5z" fill="#ff7eb8"/><path d="m482.169 133.228c-1.92-1.831-4.45-2.84-7.123-2.84h-182.968c-2.676 0-5.208 1.009-7.069 2.785-2.119 1.957-3.333 4.731-3.333 7.613v28.617c-4.986-1.097-10.146-1.521-15.348-1.186-2.194.14-4.35.426-6.47.823v-85.048c0-2.757-1.162-5.412-3.134-7.234-1.839-1.751-4.259-2.715-6.815-2.715h-167.742c-2.56 0-4.981.965-6.764 2.663-2.027 1.873-3.189 4.528-3.189 7.286v49.958c0 2.762 2.239 5 5 5s5-2.238 5-5l-.042-44.236 77.479 64.819c1.85 1.548 4.118 2.321 6.385 2.321 2.268 0 4.536-.773 6.385-2.321l77.436-64.783v82.178c-10.572 4.203-19.582 11.626-25.765 21.043l-141.877.046v-30.967c0-2.762-2.239-5-5-5s-5 2.238-5 5v30.968c0 2.76 1.163 5.417 3.142 7.245 1.841 1.746 4.26 2.708 6.811 2.708h136.755c-1.871 4.76-3.099 9.834-3.548 15.119-.841 9.9.919 19.539 5.099 28.274h-119.387c-3.114 0-6.058 1.172-8.231 3.245-2.465 2.277-3.878 5.507-3.878 8.859v156.502c0 3.356 1.414 6.588 3.83 8.819 2.237 2.122 5.177 3.291 8.28 3.291h240.788c3.099 0 6.038-1.169 8.226-3.245 2.465-2.277 3.878-5.509 3.878-8.865v-156.501c0-3.353-1.414-6.582-3.821-8.805-2.231-2.128-5.173-3.3-8.283-3.3h-22.546c2.938-6.12 4.778-12.845 5.23-19.916 1.01-15.762-4.793-31.183-15.921-42.311-4.926-4.926-10.696-8.804-16.962-11.515v-26.529l85.212 71.288c1.934 1.618 4.303 2.426 6.674 2.426 2.37 0 4.74-.809 6.673-2.426l85.21-71.287v113.613c0 .107-.041.199-.167.317-.089.085-.196.085-.231.085h-97.967c-2.761 0-5 2.238-5 5s2.239 5 5 5h97.967c2.664 0 5.189-1.005 7.065-2.785 2.118-1.957 3.333-4.733 3.333-7.617v-118.921c-.001-2.882-1.217-5.657-3.277-7.558zm-316.101 13.635-75.093-62.823 150.183-.045zm177.197 269.673c-.37.352-.864.545-1.391.545h-240.787c-.68 0-1.135-.296-1.445-.591-.248-.229-.665-.731-.665-1.52v-152.898l114.733 95.987c2.251 1.883 5.01 2.824 7.769 2.824s5.518-.941 7.769-2.824l114.731-95.985v152.897c0 .788-.417 1.291-.714 1.565zm-8.047-160.172-112.388 94.024c-.784.656-1.921.656-2.704 0l-112.388-94.024h112.553l-3.426 7.78c-1.495 3.396-.766 7.283 1.857 9.907 2.623 2.621 6.51 3.353 9.907 1.857l13.441-5.919c8.46 5.021 17.947 7.616 27.799 7.616 1.596 0 3.202-.068 4.815-.205 15.56-1.321 29.322-9.311 38.448-21.037h22.086zm-20.639-30.554c-1.401 21.878-18.916 39.774-40.74 41.627-10.23.867-20.119-1.642-28.597-7.258-.832-.551-1.794-.832-2.762-.832-.684 0-1.37.14-2.015.424l-13.332 5.87 5.871-13.332c.686-1.558.532-3.357-.408-4.776-5.617-8.476-8.126-18.364-7.258-28.597 1.853-21.824 19.749-39.338 41.627-40.738 12.887-.84 25.504 3.915 34.6 13.012 9.097 9.095 13.84 21.706 13.014 34.6zm69.238-16.097c-.148.126-.365.125-.513 0l-82.865-69.325h166.244z" fill="#2626bc"/><path d="m325.414 371.439c0-9.16-7.453-16.612-16.613-16.612s-16.613 7.452-16.613 16.612c0 4.518 1.818 8.615 4.755 11.613-2.936 2.998-4.755 7.095-4.755 11.613 0 2.762 2.239 5 5 5s5-2.238 5-5c0-3.646 2.967-6.613 6.613-6.613s6.613 2.967 6.613 6.613c0 2.762 2.239 5 5 5s5-2.238 5-5c0-4.518-1.818-8.615-4.755-11.613 2.937-2.997 4.755-7.095 4.755-11.613zm-16.613-6.612c3.646 0 6.613 2.966 6.613 6.612s-2.967 6.613-6.613 6.613-6.613-2.967-6.613-6.613 2.966-6.612 6.613-6.612z" fill="#ff7eb8"/><path d="m460.878 217.728c0-8.408-6.841-15.248-15.249-15.248s-15.249 6.84-15.249 15.248c0 3.948 1.521 7.538 3.991 10.249-2.47 2.711-3.991 6.301-3.991 10.249 0 2.762 2.239 5 5 5s5-2.238 5-5c0-2.895 2.354-5.249 5.249-5.249s5.249 2.354 5.249 5.249c0 2.762 2.239 5 5 5s5-2.238 5-5c0-3.948-1.521-7.538-3.991-10.249 2.47-2.711 3.991-6.302 3.991-10.249zm-15.249-5.249c2.895 0 5.249 2.354 5.249 5.248 0 2.895-2.354 5.249-5.249 5.249-2.894 0-5.249-2.354-5.249-5.249 0-2.893 2.355-5.248 5.249-5.248z" fill="#6583fe"/></svg>