<svg id="Capa_1" enable-background="new 0 0 512 512" height="512" viewBox="0 0 512 512" width="512" xmlns="http://www.w3.org/2000/svg" xmlns:xlink="http://www.w3.org/1999/xlink"><linearGradient id="SVGID_1_" gradientUnits="userSpaceOnUse" x1="215.735" x2="382.735" y1="201.702" y2="509.702"><stop offset="0" stop-color="#c7d3ff"/><stop offset=".593" stop-color="#e7d8f5"/><stop offset=".997" stop-color="#ffdbed"/></linearGradient><path d="m364.823 55.215c-69.098-27.035-164.784-16.764-217.662 31.51-37.336 34.085-8.439 43.8 17.016 106.17 18.423 45.14-164.177 38.927-164.177 120.495 0 94.299 132.251 76.424 181.329 87.218 75.036 16.504 140.496 78.242 220.668 70.103 69.795-7.086 96.403-61.855 106.109-124.642 18.082-116.976-26.329-245.094-143.283-290.854z" fill="url(#SVGID_1_)"/><path d="m408.24 152.98h-18.918c.085-.765.154-1.534.204-2.308 1.925-30.06-22.862-54.848-52.922-52.922-24.34 1.559-44.226 21.003-46.29 45.306-.287 3.383-.224 6.699.137 9.924h-222.691c-11.05 0-20 8.96-20 20v30.464h-17.433c-5.523 0-10 4.477-10 10v77.944c0 5.523 4.477 10 10 10h17.433v77.062c0 11.05 8.95 20 20 20h6.861l-4.281 37.966c-.59 5.22 2.74 10.08 7.82 11.42s10.37-1.26 12.43-6.09l18.415-43.296h257.99l18.415 43.296c2.06 4.83 7.35 7.43 12.43 6.09s8.41-6.2 7.82-11.42l-4.281-37.966h6.861c11.05 0 20-8.95 20-20v-205.47c0-11.04-8.95-20-20-20z" fill="#2626bc" opacity=".11"/><path d="m129.41 374.796-20.82 48.95c-2.06 4.83-7.35 7.43-12.43 6.09s-8.41-6.2-7.82-11.42l5.96-52.86z" fill="#02ffb3"/><path d="m415.84 429.835c-5.08 1.34-10.37-1.26-12.43-6.09l-20.82-48.95 35.11-9.24 5.96 52.86c.59 5.22-2.74 10.081-7.82 11.42z" fill="#02ffb3"/><path d="m94.3 365.555 35.11 9.241-7.51 17.649h-30.63z" fill="#01eca5"/><path d="m420.73 392.445h-30.63l-7.51-17.649 35.11-9.241z" fill="#01eca5"/><path d="m446.24 154.98v205.47c0 11.05-8.95 20-20 20h-340.48c-11.05 0-20-8.95-20-20v-205.47c0-11.04 8.95-20 20-20h340.48c11.05 0 20 8.96 20 20z" fill="#ffa8cf"/><path d="m407.53 149.41c-1.56 24.34-21.01 44.22-45.31 46.29-11.79 1-22.8-2.13-31.78-8.08l-15.87 6.99c-3.27 1.44-6.61-1.89-5.17-5.17l6.99-15.87c-5.95-8.98-9.08-19.99-8.08-31.78.2-2.32.55-4.59 1.07-6.81h97c1.05 4.6 1.47 9.44 1.15 14.43z" fill="#ff7eb8"/><path d="m136.27 212.18v77.94c0 5.53-4.48 10-10 10h-60.51v-97.94h60.51c5.52 0 10 4.48 10 10z" fill="#ff7eb8"/><path d="m65.755 320.333v40.116c0 11.046 8.954 20 20 20h340.49c11.046 0 20-8.954 20-20v-40.116z" fill="#02ffb3"/><path d="m287 320.333v60.116h139.245c11.046 0 20-8.954 20-20v-40.116z" fill="#ffdbed"/><path d="m361 320.333v60.116h65.245c11.046 0 20-8.954 20-20v-40.116z" fill="#6583fe"/><path d="m423.73 162v47.88c0 2.76-2.24 5-5 5h-244.06c-2.76 0-5-2.24-5-5v-47.88c0-2.76 2.24-5 5-5h244.06c2.76 0 5 2.24 5 5z" fill="#ffc4df"/><path d="m406.44 157c-4.66 20.77-22.5 36.85-44.22 38.7-11.79 1-22.8-2.13-31.78-8.08l-15.87 6.99c-3.27 1.44-6.61-1.89-5.17-5.17l6.99-15.87c-3.3-4.97-5.72-10.56-7.06-16.57z" fill="#ffa8cf"/><path d="m65.755 349.509v10.941c0 11.046 8.954 20 20 20h340.49c11.046 0 20-8.954 20-20v-10.941z" fill="#9fb0fe"/><path d="m446.242 349.506v10.94c0 11.05-8.95 20-20 20h-20.69c11.04 0 20-8.95 20-20v-10.94z" fill="#b7c5ff"/><path d="m407.526 132.672c1.925-30.06-22.862-54.848-52.922-52.922-24.34 1.559-44.226 21.004-46.29 45.306-1.001 11.788 2.122 22.803 8.072 31.781l-6.986 15.866c-1.443 3.277 1.896 6.615 5.173 5.173l15.866-6.986c8.978 5.95 19.993 9.073 31.781 8.072 24.302-2.064 43.747-21.95 45.306-46.29z" fill="#02ffb3"/><circle cx="338.861" cy="128.811" fill="#fff" r="5.59"/><circle cx="358.771" cy="128.811" fill="#fff" r="5.59"/><circle cx="378.681" cy="128.811" fill="#fff" r="5.59"/><path d="m126.271 283.388h-77.944c-5.523 0-10-4.477-10-10v-77.944c0-5.523 4.477-10 10-10h77.944c5.523 0 10 4.477 10 10v77.944c0 5.522-4.477 10-10 10z" fill="#02ffb3"/><path d="m136.267 195.446v77.94c0 5.52-4.47 10-10 10h-16.69c5.53 0 10-4.48 10-10v-77.94c0-5.53-4.47-10-10-10h16.69c5.53 0 10 4.47 10 10z" fill="#97ffd2"/><path d="m400.552 219.883h-166.707c-2.762 0-5-2.239-5-5s2.238-5 5-5h166.707c2.762 0 5 2.239 5 5s-2.238 5-5 5z" fill="#fff"/><path d="m400.552 240.778h-46.707c-2.762 0-5-2.239-5-5s2.238-5 5-5h46.707c2.762 0 5 2.239 5 5s-2.238 5-5 5z" fill="#ff7eb8"/><path d="m400.552 261.673h-46.707c-2.762 0-5-2.239-5-5s2.238-5 5-5h46.707c2.762 0 5 2.239 5 5s-2.238 5-5 5z" fill="#ff7eb8"/><path d="m400.552 282.568h-46.707c-2.762 0-5-2.239-5-5s2.238-5 5-5h46.707c2.762 0 5 2.239 5 5s-2.238 5-5 5z" fill="#ff7eb8"/><g fill="#02ffb3"><circle cx="175.962" cy="256.081" r="5.59"/><circle cx="192.873" cy="256.081" r="5.59"/><circle cx="209.783" cy="256.081" r="5.59"/><circle cx="175.962" cy="273.246" r="5.59"/><circle cx="192.873" cy="273.246" r="5.59"/><circle cx="209.783" cy="273.246" r="5.59"/></g><path d="m465 406.887c-3.739 0-7.479-1.424-10.326-4.271-2.758-2.758-4.277-6.425-4.277-10.325s1.519-7.567 4.278-10.326c5.693-5.692 14.957-5.694 20.651.001 2.758 2.758 4.277 6.425 4.277 10.325s-1.519 7.567-4.278 10.326v-.001.001c-2.846 2.846-6.586 4.27-10.325 4.27zm0-19.197c-1.179 0-2.357.449-3.254 1.346-.87.87-1.349 2.025-1.349 3.255s.479 2.385 1.348 3.254c1.795 1.795 4.715 1.794 6.509.001v-.001c.869-.869 1.348-2.024 1.348-3.254s-.479-2.385-1.348-3.254c-.897-.897-2.075-1.347-3.254-1.347z" fill="#8399fe"/><path d="m285.804 105.523c-3.739 0-7.479-1.424-10.326-4.271-5.693-5.693-5.693-14.957 0-20.65s14.958-5.693 20.651 0c2.758 2.758 4.277 6.425 4.277 10.325s-1.519 7.567-4.278 10.326v-.001.001c-2.845 2.847-6.585 4.27-10.324 4.27zm0-19.196c-1.179 0-2.357.449-3.254 1.346-1.794 1.795-1.794 4.715 0 6.51 1.794 1.793 4.715 1.793 6.509 0v-.001c.869-.869 1.348-2.024 1.348-3.254s-.479-2.385-1.348-3.254c-.898-.898-2.077-1.347-3.255-1.347z" fill="#ff7eb8"/><path d="m143.947 64.843h-3.25v-3.25c0-2.762-2.239-5-5-5s-5 2.238-5 5v3.25h-3.25c-2.761 0-5 2.238-5 5s2.239 5 5 5h3.25v3.25c0 2.762 2.239 5 5 5s5-2.238 5-5v-3.25h3.25c2.761 0 5-2.238 5-5s-2.239-5-5-5z" fill="#ff7eb8"/><path d="m158.271 415.629h-3.25v-3.25c0-2.762-2.239-5-5-5s-5 2.238-5 5v3.25h-3.25c-2.761 0-5 2.238-5 5s2.239 5 5 5h3.25v3.25c0 2.762 2.239 5 5 5s5-2.238 5-5v-3.25h3.25c2.761 0 5-2.238 5-5s-2.239-5-5-5z" fill="#8399fe"/><path d="m107.512 94.178h-3.25v-3.25c0-2.762-2.239-5-5-5s-5 2.238-5 5v3.25h-3.25c-2.761 0-5 2.238-5 5s2.239 5 5 5h3.25v3.25c0 2.762 2.239 5 5 5s5-2.238 5-5v-3.25h3.25c2.761 0 5-2.238 5-5s-2.239-5-5-5z" fill="#01eca5"/><path d="m426.245 129.984h-13.621c.138-14.702-5.611-28.885-16.03-39.304-11.127-11.127-26.553-16.927-42.31-15.921-26.779 1.715-48.684 23.155-50.953 49.873-.152 1.794-.209 3.578-.192 5.352h-217.384c-13.785 0-25 11.215-25 25v25.459h-12.428c-8.271 0-15 6.729-15 15v77.944c0 8.271 6.729 15 15 15h77.944c8.271 0 15-6.729 15-15v-77.944c0-8.271-6.729-15-15-15h-55.516v-25.459c0-8.271 6.729-15 15-15h218.393c1.185 6.057 3.393 11.869 6.594 17.263l-5.919 13.441c-1.495 3.395-.766 7.283 1.857 9.906s6.511 3.353 9.907 1.857l13.441-5.919c8.459 5.021 17.945 7.615 27.798 7.615 1.597 0 3.204-.068 4.816-.205 8.209-.697 15.981-3.198 23.1-7.435 2.373-1.412 3.152-4.481 1.74-6.854-1.413-2.373-4.48-3.15-6.854-1.74-5.807 3.456-12.143 5.496-18.831 6.063-10.233.871-20.121-1.64-28.597-7.257-1.419-.94-3.218-1.096-4.777-.408l-13.332 5.871 5.871-13.333c.686-1.558.532-3.357-.408-4.776-5.617-8.477-8.127-18.365-7.258-28.597 1.853-21.824 19.749-39.338 41.628-40.738 12.888-.845 25.504 3.915 34.6 13.011s13.838 21.707 13.013 34.602c-.381 5.95-1.945 11.688-4.648 17.051-1.243 2.466-.251 5.473 2.215 6.715 2.465 1.245 5.472.251 6.715-2.215 2.241-4.447 3.827-9.109 4.774-13.919h14.653c8.271 0 15 6.729 15 15v189.524h-370.491v-33.023c0-2.762-2.239-5-5-5s-5 2.238-5 5v48.964c0 13.785 11.215 25 25 25h1.272l-3.659 32.404c-.862 7.633 4.09 14.862 11.519 16.816 1.301.343 2.615.507 3.915.507 6.12 0 11.91-3.646 14.39-9.477l17.121-40.251h251.375l17.121 40.251c2.481 5.832 8.27 9.477 14.39 9.477 1.299 0 2.614-.164 3.914-.506 7.429-1.955 12.381-9.185 11.52-16.817l-3.659-32.404h1.272c13.785 0 25-11.215 25-25v-205.464c-.001-13.785-11.216-25-25.001-25zm-294.974 65.459v77.944c0 2.757-2.243 5-5 5h-77.944c-2.757 0-5-2.243-5-5v-77.944c0-2.757 2.243-5 5-5h77.944c2.757 0 5 2.244 5 5zm-27.282 226.343c-1.078 2.532-3.898 3.916-6.558 3.213-2.661-.7-4.436-3.29-4.127-6.024l3.785-33.525h22.356zm314.706-2.811c.309 2.734-1.466 5.324-4.128 6.025-2.662.698-5.479-.682-6.557-3.214l-15.456-36.337h22.355zm7.55-43.526h-340.49c-8.271 0-15-6.729-15-15v-5.94h370.49v5.94c0 8.272-6.729 15-15 15z" fill="#2626bc"/><path d="m100.646 242.127c4.324-3.748 7.076-9.265 7.076-15.423 0-11.261-9.162-20.422-20.422-20.422s-20.422 9.161-20.422 20.422c0 6.158 2.751 11.675 7.076 15.423-4.324 3.747-7.076 9.264-7.076 15.422 0 2.762 2.239 5 5 5s5-2.238 5-5c0-5.747 4.675-10.422 10.422-10.422s10.422 4.675 10.422 10.422c0 2.762 2.239 5 5 5s5-2.238 5-5c-.001-6.158-2.752-11.675-7.076-15.422zm-23.77-15.423c0-5.747 4.675-10.422 10.422-10.422s10.422 4.675 10.422 10.422-4.675 10.423-10.422 10.423-10.422-4.676-10.422-10.423z" fill="#fff"/></svg>