<svg id="Capa_1" enable-background="new 0 0 512 512" height="512" viewBox="0 0 512 512" width="512" xmlns="http://www.w3.org/2000/svg" xmlns:xlink="http://www.w3.org/1999/xlink"><linearGradient id="SVGID_1_" gradientUnits="userSpaceOnUse" x1="263.975" x2="247.476" y1="91.554" y2="537.032"><stop offset=".0112" stop-color="#dcfdee"/><stop offset=".7774" stop-color="#ccddfb"/><stop offset="1" stop-color="#c7d3ff"/></linearGradient><path d="m364.823 55.132c-69.098-27.035-164.784-16.764-217.662 31.51-37.336 34.085-8.439 43.8 17.016 106.17 18.423 45.14-164.177 38.927-164.177 120.495 0 94.299 132.251 76.424 181.329 87.218 75.036 16.504 140.496 78.242 220.668 70.103 69.795-7.086 96.403-61.855 106.109-124.642 18.082-116.976-26.329-245.095-143.283-290.854z" fill="url(#SVGID_1_)"/><path d="m411.375 129.219h-57.629v-43.39c0-10.844-8.787-19.63-19.631-19.63h-192.23c-10.843 0-19.63 8.787-19.63 19.63v43.39h-57.63c-10.843 0-19.63 8.787-19.63 19.631v264.003c0 10.844 8.787 19.63 19.63 19.63h57.629v29.523c0 10.844 8.787 19.631 19.63 19.631h192.23c10.844 0 19.631-8.787 19.631-19.631v-29.523h57.629c10.843 0 19.63-8.787 19.63-19.63v-264.004c.001-10.844-8.786-19.63-19.629-19.63z" fill="#2626bc" opacity=".11"/><path d="m449.005 130.849v264.003c0 10.844-8.787 19.631-19.631 19.631h-136.142c-10.843 0-19.631-8.787-19.631-19.631v-264.003c0-10.844 8.787-19.631 19.631-19.631h136.143c10.843.001 19.63 8.787 19.63 19.631z" fill="#b7c5ff"/><path d="m238.398 130.849v264.003c0 10.844-8.787 19.631-19.631 19.631h-136.142c-10.843 0-19.631-8.787-19.631-19.631v-264.003c0-10.844 8.787-19.631 19.631-19.631h136.143c10.843.001 19.63 8.787 19.63 19.631z" fill="#97ffd2"/><path d="m368.557 376.742h41.723c2.761 0 5-2.239 5-5v-60.766c0-2.761-2.239-5-5-5h-41.723z" fill="#d2deff"/><path d="m143.443 376.742h-41.723c-2.761 0-5-2.239-5-5v-60.766c0-2.761 2.239-5 5-5h41.723z" fill="#dcfdee"/><path d="m449.004 161.893v-31.047c0-10.842-8.789-19.631-19.631-19.631h-136.139c-10.842 0-19.631 8.789-19.631 19.631v31.047z" fill="#6583fe"/><path d="m449.005 130.846v31.044h-20.453v-31.044c0-10.844-8.787-19.631-19.631-19.631h20.453c10.844.001 19.631 8.788 19.631 19.631z" fill="#8399fe"/><circle cx="305.995" cy="137.573" fill="#fff" r="5.225"/><circle cx="324.607" cy="137.573" fill="#fff" r="5.225"/><circle cx="343.219" cy="137.573" fill="#fff" r="5.225"/><path d="m238.397 161.893v-31.047c0-10.842-8.789-19.631-19.631-19.631h-136.139c-10.842 0-19.631 8.789-19.631 19.631v31.047z" fill="#6583fe"/><path d="m238.398 130.846v31.044h-20.453v-31.044c0-10.844-8.787-19.631-19.631-19.631h20.453c10.844.001 19.631 8.788 19.631 19.631z" fill="#8399fe"/><circle cx="95.388" cy="137.573" fill="#fff" r="5.225"/><circle cx="114" cy="137.573" fill="#fff" r="5.225"/><circle cx="132.612" cy="137.573" fill="#fff" r="5.225"/><path d="m371.745 67.828v376.177c0 10.844-8.787 19.631-19.631 19.631h-192.23c-10.843 0-19.631-8.787-19.631-19.631v-376.177c0-10.844 8.787-19.631 19.631-19.631h192.23c10.844.001 19.631 8.788 19.631 19.631z" fill="#ffa8cf"/><path d="m191.005 463.636h129.991v-227.906c0-3.295-2.671-5.967-5.967-5.967h-118.058c-3.295 0-5.967 2.671-5.967 5.967v227.906z" fill="#ffdbed"/><path d="m371.744 98.873v-31.048c0-10.842-8.789-19.631-19.631-19.631h-192.226c-10.842 0-19.631 8.789-19.631 19.631v31.047h231.488z" fill="#6583fe"/><path d="m371.745 67.825v31.045h-20.453v-31.045c0-10.844-8.787-19.631-19.631-19.631h20.453c10.844.001 19.631 8.788 19.631 19.631z" fill="#8399fe"/><circle cx="172.648" cy="74.552" fill="#fff" r="5.225"/><circle cx="191.26" cy="74.552" fill="#fff" r="5.225"/><circle cx="209.872" cy="74.552" fill="#fff" r="5.225"/><path d="m196.971 187.364h118.058c3.295 0 5.967-2.671 5.967-5.967v-31.488c0-3.295-2.671-5.967-5.967-5.967h-118.058c-3.295 0-5.967 2.671-5.967 5.967v31.488c.001 3.295 2.672 5.967 5.967 5.967z" fill="#ffdbed"/><path d="m205.981 148.942h-16.707c-2.762 0-5-2.239-5-5s2.238-5 5-5h16.707c2.762 0 5 2.239 5 5s-2.238 5-5 5z" fill="#97ffd2"/><g fill="#ff7eb8"><path d="m241.084 176.383h-51.81c-2.762 0-5-2.239-5-5s2.238-5 5-5h51.81c2.762 0 5 2.239 5 5s-2.238 5-5 5z"/><path d="m265.794 193.267h-76.52c-2.762 0-5-2.239-5-5s2.238-5 5-5h76.52c2.762 0 5 2.239 5 5s-2.238 5-5 5z"/><path d="m322.24 258.478h-132.48c-2.762 0-5-2.239-5-5s2.238-5 5-5h132.48c2.762 0 5 2.239 5 5s-2.239 5-5 5z"/><path d="m322.24 280.515h-132.48c-2.762 0-5-2.239-5-5s2.238-5 5-5h132.48c2.762 0 5 2.239 5 5s-2.239 5-5 5z"/><path d="m322.24 302.552h-132.48c-2.762 0-5-2.239-5-5s2.238-5 5-5h132.48c2.762 0 5 2.239 5 5s-2.239 5-5 5z"/><path d="m322.24 324.59h-132.48c-2.762 0-5-2.239-5-5s2.238-5 5-5h132.48c2.762 0 5 2.239 5 5s-2.239 5-5 5z"/></g><path d="m413.834 460.889c-3.74 0-7.479-1.423-10.325-4.271-5.693-5.694-5.693-14.959 0-20.651 5.691-5.693 14.956-5.694 20.651-.001 5.693 5.693 5.693 14.958.001 20.652l-.001.001c-2.847 2.846-6.587 4.27-10.326 4.27zm6.791-7.806h.01zm-6.791-11.392c-1.179 0-2.357.449-3.255 1.346-1.794 1.795-1.794 4.716.001 6.511 1.793 1.793 4.713 1.795 6.51 0 1.794-1.796 1.794-4.716 0-6.511-.898-.896-2.077-1.346-3.256-1.346z" fill="#8399fe"/><path d="m99.227 48.26h-3.25v-3.25c0-2.762-2.238-5-5-5s-5 2.238-5 5v3.25h-3.25c-2.762 0-5 2.238-5 5s2.238 5 5 5h3.25v3.25c0 2.762 2.238 5 5 5s5-2.238 5-5v-3.25h3.25c2.762 0 5-2.238 5-5s-2.239-5-5-5z" fill="#ff7eb8"/><path d="m421.595 38.614h-3.25v-3.25c0-2.762-2.238-5-5-5s-5 2.238-5 5v3.25h-3.25c-2.762 0-5 2.238-5 5s2.238 5 5 5h3.25v3.25c0 2.762 2.238 5 5 5s5-2.238 5-5v-3.25h3.25c2.762 0 5-2.238 5-5s-2.239-5-5-5z" fill="#8399fe"/><path d="m449.279 63.922h-3.25v-3.25c0-2.762-2.238-5-5-5s-5 2.238-5 5v3.25h-3.25c-2.762 0-5 2.238-5 5s2.238 5 5 5h3.25v3.25c0 2.762 2.238 5 5 5s5-2.238 5-5v-3.25h3.25c2.762 0 5-2.238 5-5s-2.238-5-5-5z" fill="#ff7eb8"/><path d="m105.157 460.997h-3.25v-3.25c0-2.762-2.238-5-5-5s-5 2.238-5 5v3.25h-3.25c-2.762 0-5 2.238-5 5s2.238 5 5 5h3.25v3.25c0 2.762 2.238 5 5 5s5-2.238 5-5v-3.25h3.25c2.762 0 5-2.238 5-5s-2.238-5-5-5z" fill="#01eca5"/><path d="m429.373 106.216h-52.629v-38.391c0-13.581-11.05-24.63-24.631-24.63h-192.226c-13.581 0-24.631 11.049-24.631 24.63v38.391h-52.629c-13.581 0-24.631 11.05-24.631 24.631v264.008c0 13.581 11.05 24.631 24.631 24.631h13.656c2.762 0 5-2.238 5-5s-2.238-5-5-5h-13.656c-8.067 0-14.631-6.563-14.631-14.631v-227.962h67.26v242.592h-10.873c-2.762 0-5 2.238-5 5s2.238 5 5 5h10.873v24.523c0 13.581 11.05 24.63 24.631 24.63h192.227c13.581 0 24.631-11.049 24.631-24.63v-24.523h52.629c13.581 0 24.631-11.05 24.631-24.631v-264.007c-.001-13.581-11.051-24.631-24.632-24.631zm0 10c8.067 0 14.631 6.563 14.631 14.631v26.047h-67.26v-40.678zm-284.117-48.391c0-8.067 6.563-14.63 14.631-14.63h192.227c8.067 0 14.631 6.563 14.631 14.63v26.048h-221.489zm-77.26 89.068v-26.047c0-8.067 6.563-14.631 14.631-14.631h52.629v40.678zm361.377 252.592h-52.629v-219.492c0-2.762-2.238-5-5-5s-5 2.238-5 5v254.016c0 8.067-6.563 14.63-14.631 14.63h-192.226c-8.067 0-14.631-6.563-14.631-14.63v-340.136h221.488v58.021c0 2.762 2.238 5 5 5h72.26v227.961c0 8.067-6.564 14.63-14.631 14.63z" fill="#2626bc"/><path d="m257.912 422.98-1.912 1.914-1.912-1.914c-1.95-1.954-5.116-1.956-7.07-.006-1.955 1.951-1.957 5.116-.006 7.07l5.45 5.459c.938.939 2.211 1.468 3.538 1.468s2.601-.528 3.538-1.468l5.45-5.459c1.951-1.954 1.949-5.119-.006-7.07-1.953-1.951-5.119-1.949-7.07.006z" fill="#2626bc"/><path d="m338.098 143.942c0-9.16-7.453-16.613-16.613-16.613s-16.613 7.453-16.613 16.613c0 4.518 1.818 8.615 4.755 11.613-2.937 2.998-4.755 7.096-4.755 11.613 0 2.762 2.238 5 5 5s5-2.238 5-5c0-3.646 2.967-6.613 6.613-6.613s6.613 2.967 6.613 6.613c0 2.762 2.238 5 5 5s5-2.238 5-5c0-4.518-1.818-8.615-4.755-11.613 2.936-2.997 4.755-7.095 4.755-11.613zm-16.614-6.613c3.646 0 6.613 2.967 6.613 6.613s-2.967 6.613-6.613 6.613-6.613-2.967-6.613-6.613 2.967-6.613 6.613-6.613z" fill="#ff7eb8"/><path d="m247.659 396.337h-5.332c-6.508 0-11.803-5.295-11.803-11.803v-16.457c0-6.508 5.295-11.803 11.803-11.803h5.332c6.508 0 11.802 5.295 11.802 11.803v16.457c0 6.508-5.294 11.803-11.802 11.803zm-5.332-30.063c-.994 0-1.803.809-1.803 1.803v16.457c0 .994.809 1.803 1.803 1.803h5.332c.993 0 1.802-.809 1.802-1.803v-16.457c0-.994-.809-1.803-1.802-1.803z" fill="#ffa8cf"/><path d="m276.476 396.337c-2.762 0-5-2.238-5-5v-25.063h-.444c-2.762 0-5-2.238-5-5s2.238-5 5-5h5.444c2.762 0 5 2.238 5 5v30.063c0 2.762-2.239 5-5 5z" fill="#ffa8cf"/><path d="m105.934 238.207h-5.332c-6.508 0-11.802-5.295-11.802-11.803v-16.457c0-6.508 5.294-11.803 11.802-11.803h5.332c6.508 0 11.803 5.295 11.803 11.803v16.457c-.001 6.508-5.296 11.803-11.803 11.803zm-5.332-30.063c-.993 0-1.802.809-1.802 1.803v16.457c0 .994.809 1.803 1.802 1.803h5.332c.994 0 1.803-.809 1.803-1.803v-16.457c0-.994-.809-1.803-1.803-1.803z" fill="#01eca5"/><path d="m112.322 284.126h-18.108c-2.122 0-4.012-1.34-4.716-3.341s-.068-4.229 1.586-5.559c5.042-4.05 12.845-11.452 14.405-15.229.6-1.451.505-3.051-.247-4.176-.585-.875-1.455-1.318-2.586-1.318-1.898 0-3.442 1.544-3.442 3.442 0 2.762-2.238 5-5 5s-5-2.238-5-5c0-7.412 6.03-13.442 13.442-13.442 4.479 0 8.451 2.1 10.898 5.76 2.624 3.923 3.063 8.99 1.177 13.555-1.354 3.274-4.398 6.997-7.594 10.308h5.185c2.762 0 5 2.238 5 5s-2.238 5-5 5z" fill="#01eca5"/><path d="m411.398 237.308h-5.332c-6.508 0-11.803-5.295-11.803-11.803v-16.457c0-6.508 5.295-11.802 11.803-11.802h5.332c6.508 0 11.802 5.294 11.802 11.802v16.457c0 6.508-5.294 11.803-11.802 11.803zm-5.332-30.062c-.994 0-1.803.809-1.803 1.802v16.457c0 .994.809 1.803 1.803 1.803h5.332c.993 0 1.802-.809 1.802-1.803v-16.457c0-.993-.809-1.802-1.802-1.802z" fill="#8399fe"/><path d="m422.188 257.478c0-6.901-5.614-12.516-12.516-12.516h-9.395c-2.762 0-5 2.238-5 5s2.238 5 5 5h9.395c1.387 0 2.516 1.129 2.516 2.516s-1.129 2.516-2.516 2.516h-9.395c-2.762 0-5 2.238-5 5s2.238 5 5 5h9.395c1.387 0 2.516 1.129 2.516 2.516s-1.129 2.515-2.516 2.515h-9.395c-2.762 0-5 2.238-5 5s2.238 5 5 5h9.395c6.901 0 12.516-5.614 12.516-12.515 0-2.822-.95-5.42-2.531-7.516 1.581-2.096 2.531-4.694 2.531-7.516z" fill="#8399fe"/></svg>